<?xml version="1.0" encoding="utf-8"?><!DOCTYPE svg PUBLIC "-//W3C//DTD SVG 1.1//EN" "http://www.w3.org/Graphics/SVG/1.1/DTD/svg11.dtd"><svg version="1.1" id="图形" xmlns="http://www.w3.org/2000/svg" xmlns:xlink="http://www.w3.org/1999/xlink" x="0px" y="0px" width="1000px" height="1024px" viewBox="0 0 1000 1024" enable-background="new 15.167 -16.333 1000 1024" xml:space="preserve"><path fill="#505050" d="M840 747q38 0 64 -26t26 -64v-677q0 -38 -26 -64t-64 -26h-677q-38 0 -64 26t-26 64v677q0 38 26 64t64 26h677zM195 654q-33 3 -29 -32q2 -20 5 -43.5t5.5 -48.5t5.5 -48.5t5 -41.5q2 -19 11.5 -22t21.5 9q8 8 19 18.5t18 17.5q9 9 19 4t23 -18q19 -19 32.5 -31.5 t27.5 -26.5q14 -15 24.5 -18.5t25.5 10.5q10 11 14 15l13 13q15 16 10 29t-14 22q-20 20 -35 33.5t-34 33.5q-9 9 -12 16.5t6 16.5q8 8 18 19t18 19q12 12 6.5 22t-26.5 12q-20 2 -43.5 4.5t-47 5.5t-46.5 5.5t-41 4.5zM431 175q15 15 17 27t-13 27q-11 10 -15 14l-13 13 q-15 15 -27 8.5t-21 -14.5q-20 -21 -36 -37.5t-36 -36.5q-9 -9 -14.5 -10t-14.5 7q-8 8 -20.5 19.5t-19.5 19.5q-13 12 -23 6.5t-12 -26.5q-2 -20 -4.5 -43.5t-5.5 -47.5t-5.5 -46.5t-3.5 -40.5q-3 -33 31 -29q20 2 44 5t48.5 5.5t48 5.5t42.5 5q18 2 21 11.5t-9 21.5 q-7 8 -16 17.5t-16 16.5q-9 9 -6 17t16 21q19 19 34 34.5t29 29.5zM808 -20q33 -3 29 32q-2 19 -5 43t-5.5 49t-5.5 48.5t-5 41.5q-2 19 -11.5 22t-21.5 -9q-8 -7 -17.5 -16t-16.5 -16q-9 -9 -19 -4.5t-23 18.5q-19 18 -34.5 33t-29.5 29q-15 15 -27 17t-26 -13 q-11 -10 -14.5 -14t-12.5 -14q-16 -15 -9.5 -27t15.5 -21q20 -20 36.5 -36t36.5 -36q9 -9 12 -16.5t-5 -15.5t-19.5 -20.5t-19.5 -20.5q-13 -12 -7 -22t27 -12q20 -2 43.5 -4.5t47 -5.5t46.5 -5.5t41 -4.5zM838 625q2 18 -6 25t-26 5q-20 -2 -43.5 -5t-48.5 -5.5t-48.5 -5.5 t-41.5 -5q-19 -2 -22 -12t9 -22q8 -7 18 -18t17 -17q9 -9 4 -19t-18 -24q-19 -18 -33 -32.5t-28 -28.5q-14 -15 -17 -26t11 -25q10 -11 14.5 -14.5t13.5 -12.5q16 -16 29 -10.5t22 13.5q20 21 34.5 36.5t34.5 35.5q9 9 16.5 11.5t16.5 -5.5q8 -8 19 -18t19 -18 q12 -13 22 -7.5t12 27.5q2 20 4.5 43.5t5.5 47t6 45.5z" transform="translate(0, 800) scale(1, -1)"/></svg>