<?xml version="1.0" encoding="utf-8"?><!DOCTYPE svg PUBLIC "-//W3C//DTD SVG 1.1//EN" "http://www.w3.org/Graphics/SVG/1.1/DTD/svg11.dtd"><svg version="1.1" id="图形" xmlns="http://www.w3.org/2000/svg" xmlns:xlink="http://www.w3.org/1999/xlink" x="0px" y="0px" width="1000px" height="1024px" viewBox="0 0 1000 1024" enable-background="new 15.167 -16.333 1000 1024" xml:space="preserve"><path fill="#505050" d="M372 734q26 0 44.5 -18.5t18.5 -44.5v-250q0 -26 -18.5 -44.5t-44.5 -18.5h-250q-26 0 -44 18.5t-18 44.5v250q0 26 18 44.5t44 18.5h250zM372 233q26 0 44.5 -18t18.5 -44v-250q0 -26 -18.5 -44.5t-44.5 -18.5h-250q-26 0 -44 18.5t-18 44.5v250q0 26 18 44t44 18h250z M873 734q26 0 44 -18.5t18 -44.5v-250q0 -26 -18 -44.5t-44 -18.5h-250q-26 0 -44.5 18.5t-18.5 44.5v250q0 26 18.5 44.5t44.5 18.5h250zM873 233q26 0 44 -18t18 -44v-250q0 -26 -18 -44.5t-44 -18.5h-250q-26 0 -44.5 18.5t-18.5 44.5v250q0 26 18.5 44t44.5 18h250z" transform="translate(0, 800) scale(1, -1)"/></svg>