<?xml version="1.0" encoding="utf-8"?><!DOCTYPE svg PUBLIC "-//W3C//DTD SVG 1.1//EN" "http://www.w3.org/Graphics/SVG/1.1/DTD/svg11.dtd"><svg version="1.1" id="图形" xmlns="http://www.w3.org/2000/svg" xmlns:xlink="http://www.w3.org/1999/xlink" x="0px" y="0px" width="1000px" height="1024px" viewBox="0 0 1000 1024" enable-background="new 15.167 -16.333 1000 1024" xml:space="preserve"><path fill="#505050" d="M766 200q17 -79 30 -143q6 -27 11 -54t9.5 -49t7.5 -37.5t4 -19.5q3 -20 -9 -26.5t-27 -6.5q-5 0 -14.5 3.5t-14.5 5.5l-261 152q-71 -42 -129 -75q-25 -14 -49.5 -28t-44.5 -26t-34.5 -20t-19.5 -10q-10 -5 -20.5 -3.5t-19 7.5t-12.5 14.5t-2 17.5q1 4 5 19.5t9 37 t11.5 47.5t13.5 53q15 62 34 140q-59 51 -106 91q-20 17 -39.5 33.5t-35 30t-25.5 22t-11 9.5q-12 11 -20.5 24.5t-6.5 27.5t11 22t20 10l309 28l115 268q6 16 17 27.5t30 11.5q10 0 17.5 -4.5t12.5 -10.5t8.5 -12t5.5 -10l112 -268l309 -29q20 -5 28 -12t8 -22 q0 -14 -8.5 -24.5t-21.5 -25.5z" transform="translate(0, 800) scale(1, -1)"/></svg>