<?xml version="1.0" encoding="utf-8"?><!DOCTYPE svg PUBLIC "-//W3C//DTD SVG 1.1//EN" "http://www.w3.org/Graphics/SVG/1.1/DTD/svg11.dtd"><svg version="1.1" id="图形" xmlns="http://www.w3.org/2000/svg" xmlns:xlink="http://www.w3.org/1999/xlink" x="0px" y="0px" width="1000px" height="1024px" viewBox="0 0 1000 1024" enable-background="new 15.167 -16.333 1000 1024" xml:space="preserve"><path fill="#505050" d="M980 317q21 -20 22 -44t-16 -40q-19 -17 -44 -16t-40 14q-5 4 -30.5 28t-61 57.5t-76 72t-76.5 72.5t-62 59t-33 31q-32 29 -63 28t-61 -28q-10 -9 -37.5 -34.5t-63.5 -59.5t-76 -71t-74 -69t-58.5 -54.5t-29.5 -26.5q-15 -12 -40 -13t-43 15q-20 18 -19 43.5t17 40.5 q6 6 37 35t74 69t92.5 86t92 86t73 68.5t35.5 33.5q38 37 82 37.5t75 -29.5q6 -5 25 -23.5t46.5 -45t61.5 -59.5t69 -66.5t68.5 -66.5t61.5 -59.5t47 -45.5zM439 462q25 23 60 24.5t63 -24.5q3 -3 18 -17l38 -35q22 -21 49.5 -47t56.5 -52q67 -62 150 -139v-190 q0 -22 -16.5 -39t-44.5 -18h-189v155q0 33 -31 33h-191q-17 0 -23.5 -10t-6.5 -23q0 -6 -0.5 -30.5t-0.5 -52.5v-72h-183q-29 0 -46 13t-17 37v199q82 75 149 136q28 26 56 51.5t51 46.5t38.5 35.5t19.5 18.5z" transform="translate(0, 800) scale(1, -1)"/></svg>