<?xml version="1.0" encoding="utf-8"?><!DOCTYPE svg PUBLIC "-//W3C//DTD SVG 1.1//EN" "http://www.w3.org/Graphics/SVG/1.1/DTD/svg11.dtd"><svg version="1.1" id="图形" xmlns="http://www.w3.org/2000/svg" xmlns:xlink="http://www.w3.org/1999/xlink" x="0px" y="0px" width="1000px" height="1024px" viewBox="0 0 1000 1024" enable-background="new 15.167 -16.333 1000 1024" xml:space="preserve"><path fill="#505050" d="M908 -9q28 -32 30.5 -56t-18.5 -47q-24 -27 -53 -25.5t-56 23.5l-168 162q-45 -29 -96.5 -45t-108.5 -16q-78 0 -146 29.5t-119 80.5t-80.5 119t-29.5 146t29.5 146t80.5 119t119 80.5t146 29.5t146 -29.5t119 -80.5t80.5 -119t29.5 -146q0 -59 -17 -112t-48 -98l33 -33 q24 -24 50.5 -50t48.5 -49t28 -29zM442 112q52 0 98 19.5t80 53.5t53.5 80t19.5 98t-19.5 98t-53.5 80t-80 53.5t-98 19.5t-98 -19.5t-80 -53.5t-53.5 -80t-19.5 -98t19.5 -98t53.5 -80t80 -53.5t98 -19.5z" transform="translate(0, 800) scale(1, -1)"/></svg>