<?xml version="1.0" encoding="utf-8"?><!DOCTYPE svg PUBLIC "-//W3C//DTD SVG 1.1//EN" "http://www.w3.org/Graphics/SVG/1.1/DTD/svg11.dtd"><svg version="1.1" id="图形" xmlns="http://www.w3.org/2000/svg" xmlns:xlink="http://www.w3.org/1999/xlink" x="0px" y="0px" width="1000px" height="1024px" viewBox="0 0 1000 1024" enable-background="new 15.167 -16.333 1000 1024" xml:space="preserve"><path fill="#505050" d="M993 208q2 -12 -1 -29t-10 -34.5t-17 -31.5t-22 -20t-21 -6t-20 4q-10 3 -25 5.5t-30.5 1t-31 -6.5t-26.5 -17q-24 -25 -28 -57t9 -61q10 -20 -3 -40q-6 -8 -19 -16.5t-28.5 -15.5t-32.5 -11t-30 -4q-9 0 -17 7t-11 15h-1q-11 31 -37.5 53.5t-61.5 22.5 q-34 0 -61.5 -22.5t-38.5 -52.5q-5 -12 -15 -17.5t-22 -5.5q-14 0 -31.5 5t-35 12.5t-31.5 17.5t-21 20q-5 7 -5.5 16.5t7.5 26.5q11 23 8.5 52.5t-25.5 54.5q-14 15 -34 19.5t-38 3.5q-21 -1 -43 -8q-14 -4 -28 2q-11 4 -20.5 18.5t-17 32t-11.5 36t-2 30.5q3 22 20 28 q30 12 54 39.5t24 61.5q0 35 -24 61t-54 38q-9 3 -15 14.5t-6 23.5q0 13 4 29t10.5 31t15 27.5t18.5 18.5q8 5 15.5 4t16.5 -4q30 -12 62.5 -7.5t57.5 28.5q12 12 17.5 29.5t7 34.5t0 31t-2.5 20q-2 6 -3.5 14t1.5 14q6 14 21.5 24.5t33.5 17.5t35 10.5t27 3.5 q13 0 20.5 -8.5t10.5 -17.5q11 -27 36 -47.5t59 -20.5q35 0 62 19.5t38 49.5q4 8 12.5 16.5t17.5 8.5q14 0 30.5 -4t32.5 -11t29.5 -18t21.5 -24q5 -8 3 -17.5t-4 -13.5q-13 -29 -8 -61t29 -56t59 -26.5t65 11.5q8 5 19.5 4t19.5 -9q15 -14 26.5 -42.5t15.5 -57.5 q2 -17 -5.5 -26.5t-15.5 -12.5q-31 -11 -53 -38.5t-22 -62.5q0 -34 18.5 -59.5t48.5 -36.5q7 -4 12 -8q11 -9 15 -23zM528 118q45 0 85 17t69.5 47t46.5 69.5t17 84.5t-17 84.5t-46.5 69t-69.5 46.5t-85 17t-84.5 -17t-69 -46.5t-46.5 -69t-17 -84.5t17 -84.5t46.5 -69.5 t69 -47t84.5 -17z" transform="translate(0, 800) scale(1, -1)"/></svg>